<?xml version="1.0" encoding="iso-8859-1"?>
<!-- Generator: Adobe Illustrator 19.0.0, SVG Export Plug-In . SVG Version: 6.00 Build 0)  -->
<svg version="1.1" id="Layer_1" xmlns="http://www.w3.org/2000/svg" xmlns:xlink="http://www.w3.org/1999/xlink" x="0px" y="0px"
	 viewBox="0 0 512.883 512.883" style="enable-background:new 0 0 512.883 512.883;" xml:space="preserve">
<path style="fill:#E8EDEE;" d="M0,106.372v386.648c0,10.593,8.828,19.421,19.421,19.421h104.166h264.828h104.166
	c10.593,0,19.421-8.828,19.421-19.421V106.372H0z"/>
<path style="fill:#B1BBBC;" d="M256,512.441H15.89c-8.828,0-15.89-7.062-15.89-15.89V362.372h256V512.441z"/>
<path style="fill:#546A79;" d="M496.993,512.441H256V362.372h256v134.179C512,505.379,504.938,512.441,496.993,512.441"/>
<g>
	<path style="fill:#DD342E;" d="M79.448,468.303c-2.648,0-4.414-0.883-6.179-2.648c-3.531-3.531-3.531-8.828,0-12.359l44.138-44.138
		c3.531-3.531,8.828-3.531,12.359,0c3.531,3.531,3.531,8.828,0,12.359l-44.138,44.138C83.862,467.421,82.097,468.303,79.448,468.303
		"/>
	<path style="fill:#DD342E;" d="M167.724,468.303c-2.648,0-4.414-0.883-6.179-2.648l-44.138-44.138
		c-3.531-3.531-3.531-8.828,0-12.359c3.531-3.531,8.828-3.531,12.359,0l44.138,44.138c3.531,3.531,3.531,8.828,0,12.359
		C172.138,467.421,170.372,468.303,167.724,468.303"/>
</g>
<g>
	<path style="fill:#42B05C;" d="M388.414,468.303c-2.648,0-4.414-0.883-6.179-2.648c-3.531-3.531-3.531-8.828,0-12.359
		l44.138-44.138c3.531-3.531,8.828-3.531,12.359,0c3.531,3.531,3.531,8.828,0,12.359l-44.138,44.138
		C392.828,467.421,391.062,468.303,388.414,468.303"/>
	<path style="fill:#42B05C;" d="M388.414,468.303c-2.648,0-4.414-0.883-6.179-2.648l-44.138-44.138
		c-3.531-3.531-3.531-8.828,0-12.359c3.531-3.531,8.828-3.531,12.359,0l44.138,44.138c3.531,3.531,3.531,8.828,0,12.359
		C392.828,467.421,391.062,468.303,388.414,468.303"/>
</g>
<path style="fill:#546A79;" d="M512,106.372H0V17.214C0,7.503,7.062,0.441,16.772,0.441H496.11c8.828,0,16.772,7.062,16.772,16.772
	v89.159H512z"/>
<path style="fill:#ED7161;" d="M79.448,53.407c0,15.007-11.476,26.483-26.483,26.483S26.483,68.414,26.483,53.407
	s11.476-26.483,26.483-26.483S79.448,38.4,79.448,53.407"/>
<path style="fill:#ECBA16;" d="M158.897,53.407c0,15.007-11.476,26.483-26.483,26.483c-15.007,0-26.483-11.476-26.483-26.483
	s11.476-26.483,26.483-26.483C147.421,26.924,158.897,38.4,158.897,53.407"/>
<g>
	<path style="fill:#42B05C;" d="M238.345,53.407c0,15.007-11.476,26.483-26.483,26.483c-15.007,0-26.483-11.476-26.483-26.483
		s11.476-26.483,26.483-26.483C226.869,26.924,238.345,38.4,238.345,53.407"/>
	<path style="fill:#42B05C;" d="M353.103,238.786c0,53.848-43.255,97.103-97.103,97.103s-97.103-43.255-97.103-97.103
		s43.255-97.103,97.103-97.103S353.103,184.938,353.103,238.786"/>
</g>
<path style="fill:#ECBA16;" d="M256,141.683c-53.848,0-97.103,43.255-97.103,97.103H256V141.683z"/>
<path style="fill:#7383BF;" d="M123.586,159.338H79.448c-5.297,0-8.828-3.531-8.828-8.828s3.531-8.828,8.828-8.828h44.138
	c5.297,0,8.828,3.531,8.828,8.828S128.883,159.338,123.586,159.338"/>
<path style="fill:#42B05C;" d="M44.138,159.338H35.31c-5.297,0-8.828-3.531-8.828-8.828s3.531-8.828,8.828-8.828h8.828
	c5.297,0,8.828,3.531,8.828,8.828S49.434,159.338,44.138,159.338"/>
<path style="fill:#ED7161;" d="M70.621,194.648H35.31c-5.297,0-8.828-3.531-8.828-8.828s3.531-8.828,8.828-8.828h35.31
	c5.297,0,8.828,3.531,8.828,8.828S75.917,194.648,70.621,194.648"/>
<path style="fill:#ECBA16;" d="M123.586,194.648h-17.655c-5.297,0-8.828-3.531-8.828-8.828s3.531-8.828,8.828-8.828h17.655
	c5.297,0,8.828,3.531,8.828,8.828S128.883,194.648,123.586,194.648"/>
<path style="fill:#7383BF;" d="M476.69,300.579h-44.138c-5.297,0-8.828-3.531-8.828-8.828s3.531-8.828,8.828-8.828h44.138
	c5.297,0,8.828,3.531,8.828,8.828S481.986,300.579,476.69,300.579"/>
<path style="fill:#42B05C;" d="M397.241,300.579h-8.828c-5.297,0-8.828-3.531-8.828-8.828s3.531-8.828,8.828-8.828h8.828
	c5.297,0,8.828,3.531,8.828,8.828S402.538,300.579,397.241,300.579"/>
<path style="fill:#ED7161;" d="M423.724,335.89h-35.31c-5.297,0-8.828-3.531-8.828-8.828s3.531-8.828,8.828-8.828h35.31
	c5.297,0,8.828,3.531,8.828,8.828S429.021,335.89,423.724,335.89"/>
<path style="fill:#ECBA16;" d="M476.69,335.89h-17.655c-5.297,0-8.828-3.531-8.828-8.828s3.531-8.828,8.828-8.828h17.655
	c5.297,0,8.828,3.531,8.828,8.828S481.986,335.89,476.69,335.89"/>
</svg>